<svg id="Layer_1" data-name="Layer 1" xmlns="http://www.w3.org/2000/svg" viewBox="0 0 99.18 37.54"><defs><style>.cls-1,.cls-4{fill:#d43900;}.cls-2{fill:none;}.cls-2,.cls-4{stroke:#000;stroke-miterlimit:10;stroke-width:2px;}.cls-3{fill:#fff;}.cls-4{stroke-linecap:round;}</style></defs><path class="cls-1" d="M50.31,7.93h4.63l3.67,9.67L62.5,7.93h4.68L69.92,26H65.21L63.89,15.61h0L59.5,26H57.63L53.48,15.61h0L51.92,26H47.24Z" transform="translate(-9.52 -7.36)"/><path class="cls-1" d="M76.52,22.88,75.27,26h-5l7-18.1h5.13L89.19,26h-5L83,22.88Zm3.28-9.36h0l-2,5.76h3.91Z" transform="translate(-9.52 -7.36)"/><path class="cls-1" d="M108.7,15.92a24.2,24.2,0,0,1-.33,3.74,8.69,8.69,0,0,1-1.52,3.44,7.77,7.77,0,0,1-3.25,2.69,10.45,10.45,0,0,1-4.21.84,9.54,9.54,0,0,1-7-2.63,9.22,9.22,0,0,1-2.69-6.9A9.49,9.49,0,0,1,92.46,10a9.71,9.71,0,0,1,7.1-2.66,9.31,9.31,0,0,1,4.88,1.26,8.39,8.39,0,0,1,3.28,3.8l-4.47,1.85a4.61,4.61,0,0,0-1.49-2.07,3.82,3.82,0,0,0-2.42-.79A3.93,3.93,0,0,0,96,13a6.69,6.69,0,0,0-1.31,3.58,1,1,0,0,0,0,.25v.4a6.66,6.66,0,0,0,1.27,3.79,4,4,0,0,0,3.5,1.73A4.22,4.22,0,0,0,102,22a3.16,3.16,0,0,0,1.21-2.36H99.37V15.92Z" transform="translate(-9.52 -7.36)"/><path d="M58.63,42.91,57.17,39.6H52.08l-1.5,3.31h-2.2l6.24-13.38,6.22,13.38Zm-5.78-5h3.58l-1.31-2.94c-.08-.19-.16-.4-.24-.64s-.17-.52-.25-.82c-.07.28-.14.55-.22.79s-.16.47-.24.67Z" transform="translate(-9.52 -7.36)"/><path d="M64.33,42.91l6.56-11.09H65.43V30h8.68l-6.5,11h6.58v1.87Z" transform="translate(-9.52 -7.36)"/><path d="M77.86,42.91V30H80V42.91Z" transform="translate(-9.52 -7.36)"/><path d="M83.85,42.91V29.53L92,37.4l.68.71.72.85V30h1.93V43.41l-8.34-8c-.22-.22-.44-.45-.65-.69a9,9,0,0,1-.59-.76v8.95Z" transform="translate(-9.52 -7.36)"/><path d="M99.66,42.91V30h7.18v1.78h-5.09V35h5.09v1.84h-5.09V41h5.09v1.87Z" transform="translate(-9.52 -7.36)"/><ellipse cx="5.2" cy="12.88" rx="4.5" ry="6.5"/><path class="cls-2" d="M10.23,10.74a6.35,6.35,0,0,1,9,0" transform="translate(-9.52 -7.36)"/><ellipse class="cls-3" cx="5.7" cy="10.88" rx="2" ry="3.5"/><ellipse cx="22.2" cy="12.88" rx="4.5" ry="6.5"/><path class="cls-2" d="M27.23,10.74a6.35,6.35,0,0,1,9,0" transform="translate(-9.52 -7.36)"/><ellipse class="cls-3" cx="22.7" cy="10.88" rx="2" ry="3.5"/><path class="cls-4" d="M30.12,31.14a10.73,10.73,0,0,1,1.15,2.27c1.61,4.34.53,8.88-2.41,10.12s-5.72-.83-7.33-5.16a31.55,31.55,0,0,1-1.27-3.31" transform="translate(-9.52 -7.36)"/><path class="cls-4" d="M20.26,35.06c2.33-1.64,4.72-2.19,6.24.22" transform="translate(-9.52 -7.36)"/><path class="cls-4" d="M25.31,34c.61-1.71,2.69-4,4.5-3.17" transform="translate(-9.52 -7.36)"/><circle cx="12.95" cy="20.38" r="2.5"/><circle class="cls-3" cx="13.74" cy="19.78" r="1.5"/></svg>